<svg width="62" height="18" viewBox="0 0 62 18" fill="none" xmlns="http://www.w3.org/2000/svg">
    <path d="M14.1593 0.65625H10.6074L2.87053 8.51454V0.682798H0.0234375V17.7116H2.87053V9.4627L10.6353 17.7116H14.3146L6.03617 8.90518L14.1593 0.65625Z" fill="white"/>
    <path d="M23.8386 5.79531C22.8232 5.24159 21.6803 4.96094 20.4021 4.96094C19.1 4.96094 17.9333 5.2378 16.902 5.79531C15.8707 6.35283 15.0703 7.12273 14.4929 8.1126C13.9195 9.10247 13.6328 10.2251 13.6328 11.4804C13.6328 12.7358 13.9195 13.8622 14.4889 14.8483C15.0584 15.8382 15.8587 16.6118 16.8821 17.1656C17.9094 17.7193 19.0722 17.9999 20.3743 17.9999C21.6604 17.9999 22.8112 17.7231 23.8306 17.1656C24.846 16.6118 25.6384 15.8382 26.2038 14.8483C26.7693 13.8584 27.052 12.7358 27.052 11.4804C27.052 10.2251 26.7693 9.10247 26.2038 8.1126C25.6424 7.12273 24.85 6.35283 23.8386 5.79531ZM23.6594 13.6309C23.3448 14.2528 22.9028 14.7345 22.3334 15.0834C21.764 15.4323 21.1069 15.6068 20.3663 15.6068C19.6177 15.6068 18.9527 15.4323 18.3753 15.0834C17.7979 14.7345 17.348 14.249 17.0294 13.6309C16.7109 13.0089 16.5516 12.2959 16.5516 11.4842C16.5516 10.6726 16.7148 9.9596 17.0374 9.33762C17.3599 8.71563 17.8099 8.23396 18.3912 7.88504C18.9686 7.53612 19.6376 7.36166 20.3982 7.36166C21.1308 7.36166 21.7839 7.53612 22.3533 7.88504C22.9227 8.23396 23.3647 8.71942 23.6753 9.33762C23.9859 9.9596 24.1412 10.6726 24.1412 11.4842C24.1332 12.2921 23.9739 13.0089 23.6594 13.6309Z" fill="white"/>
    <path d="M32.8715 2.14258H30.1121V4.25886C30.1121 4.59261 30.0284 4.84292 29.8572 5.006C29.686 5.17288 29.4232 5.25632 29.0648 5.25632H27.7109V7.49396H30.0603V14.1955C30.0603 14.8934 30.2076 15.5078 30.5063 16.0387C30.8049 16.5697 31.227 16.9831 31.7765 17.2751C32.326 17.5671 32.9751 17.7113 33.7237 17.7113H35.8301V15.375H34.2453C33.8352 15.375 33.5047 15.2385 33.2498 14.9692C32.995 14.6961 32.8676 14.3396 32.8676 13.8921V7.49396H35.9058V5.25632H32.8676V2.14258H32.8715Z" fill="white"/>
    <path d="M40.9088 0H38.1016V17.7115H40.9088V0Z" fill="white"/>
    <path d="M46.9133 0.0224609H44.0781V2.7721H46.9133V0.0224609Z" fill="white"/>
    <path d="M46.8854 5.25684H44.0781V17.7118H46.8854V5.25684Z" fill="white"/>
    <path d="M61.1638 7.31247C60.7696 6.57291 60.2121 6.00023 59.4914 5.58683C58.7707 5.17344 57.9305 4.96484 56.9668 4.96484C55.9435 4.96484 55.0475 5.20378 54.279 5.67786C53.6658 6.05332 53.172 6.56154 52.7818 7.18732L52.7659 5.25688H50.082V17.7118H52.8933V10.741C52.8933 10.0697 53.0287 9.47047 53.2955 8.94709C53.5623 8.42371 53.9405 8.0179 54.4343 7.72966C54.9241 7.44142 55.4935 7.2973 56.1505 7.2973C56.7399 7.2973 57.2416 7.41487 57.6637 7.65002C58.0858 7.88516 58.4043 8.2227 58.6193 8.65885C58.8383 9.095 58.9459 9.61838 58.9459 10.229V17.7118H61.7571V9.85353C61.7571 8.89779 61.558 8.04824 61.1638 7.31247Z" fill="white"/>
</svg>
